<?xml version="1.0" encoding="utf-8"?>
<!-- Generator: Adobe Illustrator 24.0.2, SVG Export Plug-In . SVG Version: 6.00 Build 0)  -->
<svg version="1.1" id="Layer_1" xmlns="http://www.w3.org/2000/svg" xmlns:xlink="http://www.w3.org/1999/xlink" x="0px" y="0px"
	 viewBox="0 0 220 390" style="enable-background:new 0 0 220 390;" xml:space="preserve">
<style type="text/css">
	.st0{fill:#FFFFFF;stroke:#000000;stroke-width:0.5005;stroke-miterlimit:10;}
	.st1{fill:#FFFFFF;stroke:#000000;stroke-width:0.4852;stroke-miterlimit:10;}
	.st2{fill:#FFFFFF;stroke:#000000;stroke-width:0.4831;stroke-miterlimit:10;}
	.st3{fill:#221F1F;}
	.st4{fill:none;}
	.st5{font-family:'Gabriola';}
	.st6{font-size:18px;}
	.st7{fill:none;stroke:#000000;stroke-width:11;stroke-miterlimit:10;}
	.st8{fill:none;stroke:#000000;stroke-width:6;stroke-miterlimit:10;}
</style>
<g>
	<path class="st0" d="M305.4,12.6"/>
	<path class="st1" d="M305.4,12.6"/>
	<path class="st2" d="M305.4,12.6"/>
	<path class="st3" d="M143.5,217.6C143.5,217.5,143.5,217.5,143.5,217.6L143.5,217.6c-0.3,0-0.5-0.1-0.7-0.1
		c-0.2-0.1-0.5-0.2-0.8-0.3s-0.6-0.3-1-0.6c-0.5-0.3-1-0.7-1.5-1.1c-0.5-0.5-1.2-1-1.9-1.7s-1.5-1.4-2.4-2.3
		c-0.5-0.5-4.8-4.6-5.4-5.3c0.6-0.4,1.1-0.8,1.7-1.3c0.2-0.2,0.5-0.5,0.7-0.7c0.6-0.5,1.1-1,1.6-1.6c0.6-0.8,1.1-1.7,1.4-2.7
		c0.2-1,0.3-2,0.1-3.1c-0.2-1.2-0.6-2.2-1.3-3s-1.5-1.4-2.5-1.8c-1-0.4-2.1-0.6-3.3-0.7c-2-0.1-4.2,0.2-6.6,0.7c-1,0.2-2,0.4-3,0.7
		c-0.1,0-0.1,0-0.2,0c-3.8-1.2-5.7-1.3-9.3,0.2c0-0.5,0-1,0-1.5c-0.1-1.4-0.2-2.7-0.4-4c-0.2-1.1-0.4-1.9-0.5-2.7
		c-0.2-0.8-0.5-1.4-0.7-1.8c-0.4-0.6-0.9-1.1-1.5-1.3c-0.5-0.2-1.1-0.3-1.8-0.2c-0.3,0.1-0.6,0.1-0.9,0.2c-0.2,0.1-0.5,0.1-0.8,0.2
		l-1.5,0.5l0.5,1.3c0.1,0.3,0.2,0.5,0.3,0.7c0.1,0.2,0.2,0.4,0.2,0.6c0.1,0.2,0.1,0.3,0.2,0.5s0.1,0.4,0.2,0.6
		c0.1,0.7,0.2,1.3,0.1,1.9c-0.1,0.5-0.2,1.1-0.5,1.5c-0.2,0.4-0.6,0.8-1.1,1.1s-1.1,0.5-1.9,0.6c-0.9,0.1-1.8,0.1-2.6-0.2
		c-0.8-0.3-1.5-0.7-2.3-1.3c-0.7-0.7-1.4-1.5-1.9-2.6s-1-2.4-1.2-3.9c-0.2-0.8-0.2-1.6-0.2-2.4c0-0.8,0.1-1.6,0.3-2.3
		c0.2-0.7,0.4-1.4,0.8-2.1c0.3-0.6,0.7-1.1,1.2-1.6s1.1-0.9,1.7-1.2c1-0.5,2.3-0.8,3.7-0.7c0.5,0,0.8,0.1,1.2,0.3
		c0.3,0.1,0.5,0.3,0.8,0.5c0.2,0.2,0.3,0.4,0.3,0.7c0.1,0.2,0.1,0.5,0,0.8l-0.1,0.7l1.1,0.7l0.5,0.1c0.8,0.1,1.8-0.1,2.5-0.5
		c0.5-0.2,0.8-0.5,1.1-0.8s0.5-0.7,0.7-1.1c0.2-0.4,0.2-0.9,0.1-1.3c-0.2-0.9-0.6-1.6-1.3-2.3c-0.6-0.5-1.4-0.9-2.3-1.3
		c-0.8-0.3-1.8-0.5-2.8-0.5c-1-0.1-2-0.1-3,0.1c-1.6,0.2-3.1,0.6-4.4,1.1s-2.5,1.3-3.4,2.1c-1,0.8-1.8,1.7-2.5,2.7
		c-0.6,1-1.1,2.1-1.5,3.1c-0.4,1.1-0.5,2.2-0.6,3.3s0,2.3,0.2,3.3c0.2,1.3,0.5,2.5,1.1,3.5c0.5,1.1,1.1,2.1,1.7,2.9
		c0.7,0.9,1.5,1.5,2.3,2.1s1.8,1.1,2.8,1.4c1,0.3,2,0.6,3.1,0.7c1.8,0.2,3.8,0,5.5-0.6c0.8-0.3,1.5-0.7,2.1-1.1
		c0.1,0,0.1-0.1,0.2-0.1l-0.5,8c-0.1,0.2-0.1,0.5-0.2,0.7c-1-0.2-2.1-0.4-3.1-0.6c-1.6-0.3-3.1-0.6-4.8-0.8
		c-1.6-0.2-3.2-0.3-4.8-0.4c-3.3-0.1-6.6,0.3-9.3,1.2c-1.3,0.5-2.5,1-3.5,1.6c-1.1,0.6-2,1.3-2.7,2.1c-0.8,0.7-1.4,1.6-1.8,2.4
		c-0.5,0.9-0.8,1.7-0.9,2.6c-0.2,0.9-0.2,1.8,0,2.7c0.2,0.8,0.4,1.6,0.8,2.3s0.9,1.5,1.6,2.1c0.7,0.7,1.5,1.2,2.4,1.7s1.9,0.9,3,1.1
		c1.1,0.3,2.3,0.5,3.7,0.5c1.3,0.1,2.8,0,4.2-0.2c1.7-0.2,3.2-0.6,4.7-1.1s2.8-1.1,4.1-1.8c1.2-0.7,2.4-1.5,3.4-2.5
		c1-0.9,2-1.9,2.8-2.9c0.8-1.1,1.6-2.1,2.3-3.3c0.3-0.6,0.6-1.2,0.9-1.8c0.2,0.1,0.2,0.1,0.4,0.1c1.2,0.2,2.5,0.4,3.7,0.5
		c1.1,0.1,6.5,0.6,9,0.7c0.2,1.5,0.3,2.5,0.5,4.1c0.2,1.9,0.5,3.9,0.8,6l0.1,0.4c0,0.1,0,0.1,0,0.2v0.1v0.3h0.1
		c0.2,0.3,0.6,0.6,1.1,0.5c0,0,0,0,0.1,0c1.1-0.1,2.1-0.3,3.1-0.5c0.2,0,0.2-0.1,0.3-0.1c0.5-0.1,0.8-0.6,0.7-1l0,0l-0.8-5.8
		c-0.2-1.7-0.3-2.7-0.5-4.3c0-0.1,0-0.1,0-0.1c0.2,0,0.3-0.1,0.5-0.1c0.7,0.7,5.1,5,5.7,5.6c0.2,0.2,0.2,0.3,0.3,0.3
		c0.1,0.1,0.2,0.1,0.2,0.2c0.1,0.1,0.1,0.1,0.2,0.1c1.7,1.6,4.4,4.2,5,4.6c0.8,0.6,1.4,1.1,1.9,1.4c0.4,0.2,0.7,0.4,1,0.5
		c0.3,0.2,0.7,0.3,1,0.4c0.4,0.1,0.7,0.2,1.1,0.2c0.2,0,0.2,0,0.4,0l0,0h0.1c0,0,0,0,0.1,0c0.2,0,0.3,0,0.5-0.1
		c0.7-0.2,1.1-0.7,1.6-1.1c0.2-0.3,0.5-0.5,0.5-0.8c0.2-0.3,0.2-0.7,0.2-1C144.4,218.2,144,217.7,143.5,217.6z M99.8,209.6
		c-1,1.5-2.1,2.7-3.4,3.8c-1.3,1-2.7,1.9-4.1,2.5c-1.5,0.6-3.1,1-4.8,1.3c-1.1,0.1-2.3,0.2-3.3,0.1c-1-0.1-1.9-0.2-2.7-0.5
		c-0.8-0.2-1.5-0.5-2.1-0.9c-0.6-0.3-1.1-0.7-1.6-1.2s-0.8-0.9-1.1-1.4c-0.3-0.5-0.5-1-0.5-1.5c-0.1-0.5-0.1-1.1,0-1.6
		s0.2-1.1,0.5-1.5c0.3-0.5,0.6-1,1.1-1.5s1.1-0.9,1.8-1.3c0.7-0.4,1.5-0.8,2.5-1.1c0.9-0.3,2.1-0.5,3.2-0.7c1.5-0.2,2.9-0.3,4.4-0.2
		s3.1,0.2,4.5,0.4c1.5,0.2,3.1,0.5,4.6,0.8c1,0.2,2.1,0.4,3.1,0.7C101.3,207.1,100.6,208.4,99.8,209.6z M118.1,204.1
		c-2.2-0.1-4.4-0.2-6.7-0.3c-0.1,0-0.2-0.1-0.2-0.1c-1.1-0.1-2.1-0.3-3.1-0.5c-0.1,0-0.2-0.1-0.2-0.1l0,0l-0.1-0.1l-0.1-0.1
		c0-0.1-0.1-0.1-0.1-0.1l0,0l0,0c0.2-1,0.4-2,0.5-3c0.2-0.9,0.5-1.5,0.9-2.3c0.4-0.7,0.8-1.3,1.7-1.7c0.8-0.3,2-0.5,2.9-0.5
		c1.8-0.1,3,1.6,3.5,2.9C117.8,200.2,117.8,202.2,118.1,204.1z M126.1,204.1c-0.8,0.2-1.5,0.3-2.2,0.5c-0.3-1.5-0.6-3-0.8-4.5
		c0-0.1-0.1-0.2-0.1-0.3s0-0.3-0.1-0.5c-0.2-1.5-0.4-2.9-0.6-4.4c0.1-0.1,0.2-0.3,0.4-0.4c0.8-0.6,1.8-0.7,2.8-0.5
		c3.8,0.5,6.1,4.1,4.3,7C129.1,202.3,127.6,203.6,126.1,204.1z"/>
</g>
<rect x="58.1" y="61.2" class="st4" width="109.4" height="13.7"/>
<text transform="matrix(1 0 0 1 58.1063 73.1253)" class="st5 st6">Gabrielle Romano</text>
<rect x="38" y="320.6" class="st4" width="149.7" height="13"/>
<text transform="matrix(1 0 0 1 37.9732 332.5017)" class="st5 st6">Designer &amp; Photographer</text>
<rect x="-0.5" y="-0.2" class="st7" width="220" height="390"/>
<line class="st8" x1="-3.1" y1="133.2" x2="216.9" y2="133.2"/>
<line class="st8" x1="0.4" y1="259.7" x2="220.4" y2="259.7"/>
<path class="st0" d="M4,4.7"/>
<path class="st1" d="M4,4.7"/>
<path class="st2" d="M4,4.7"/>
<g>
	
		<image style="overflow:visible;enable-background:new    ;" width="417" height="733" xlink:href="../../Web-Type/Broken Glass/7C52B579.png"  transform="matrix(0.2382 0 0 0.2382 -30.3495 -22.3378)">
	</image>
</g>
<g>
	
		<image style="overflow:visible;enable-background:new    ;" width="1158" height="408" xlink:href="../../Web-Type/Broken Glass/7C52B57B.png"  transform="matrix(0.2396 0 0 0.2396 -28.4654 68.04)">
	</image>
</g>
<g>
	
		<image style="overflow:visible;enable-background:new    ;" width="1171" height="404" xlink:href="../../Web-Type/Broken Glass/7C52B57E.png"  transform="matrix(0.2396 0 0 0.2396 -30.7132 -29.8705)">
	</image>
</g>
<g>
	
		<image style="overflow:visible;enable-background:new    ;" width="404" height="713" xlink:href="../../Web-Type/Broken Glass/7C52B57F.png"  transform="matrix(0.2387 0 0 0.2387 153.6262 -17.9592)">
	</image>
</g>
<g>
	
		<image style="overflow:visible;enable-background:new    ;" width="721" height="442" xlink:href="../../Web-Type/Broken Glass/7C52B57A.png"  transform="matrix(0.2381 0 0 0.2381 -28.957 188.2643)">
	</image>
</g>
<g>
	
		<image style="overflow:visible;enable-background:new    ;" width="696" height="442" xlink:href="../../Web-Type/Broken Glass/7C52B575.png"  transform="matrix(0.2613 0 0 0.2537 68.8807 97.6227)">
	</image>
</g>
<g>
	
		<image style="overflow:visible;enable-background:new    ;" width="371" height="596" xlink:href="../../Web-Type/Broken Glass/7C52B576.png"  transform="matrix(0.2378 0 0 0.2378 161.6785 136.0119)">
	</image>
</g>
<g>
	
		<image style="overflow:visible;enable-background:new    ;" width="429" height="688" xlink:href="../../Web-Type/Broken Glass/7C52B577.png"  transform="matrix(0.2388 0 0 0.2388 -30.3423 119.5035)">
	</image>
</g>
<g>
	
		<image style="overflow:visible;enable-background:new    ;" width="704" height="429" xlink:href="../../Web-Type/Broken Glass/7C52B589.png"  transform="matrix(0.2567 0 0 0.2386 68.8807 191.0237)">
	</image>
</g>
<g>
	
		<image style="overflow:visible;enable-background:new    ;" width="717" height="417" xlink:href="../../Web-Type/Broken Glass/F7F43A82.png"  transform="matrix(0.2389 0 0 0.2389 -25.9704 100.1199)">
	</image>
</g>
<g>
	
		<image style="overflow:visible;enable-background:new    ;" width="708" height="438" xlink:href="../../Web-Type/Broken Glass/F7F43A85.png"  transform="matrix(0.2483 0 0 0.2382 74.9149 226.8383)">
	</image>
</g>
<g>
	
		<image style="overflow:visible;enable-background:new    ;" width="688" height="413" xlink:href="../../Web-Type/Broken Glass/F7F43A86.png"  transform="matrix(0.2579 0 0 0.2386 -28.4485 321.3286)">
	</image>
</g>
<g>
	
		<image style="overflow:visible;enable-background:new    ;" width="392" height="650" xlink:href="../../Web-Type/Broken Glass/F7F43A84.png"  transform="matrix(0.2379 0 0 0.2379 156.5296 249.7299)">
	</image>
</g>
<g>
	
		<image style="overflow:visible;enable-background:new    ;" width="704" height="404" xlink:href="../../Web-Type/Broken Glass/F7F43A83.png"  transform="matrix(0.2499 0 0 0.2382 -26.985 226.2383)">
	</image>
</g>
<g>
	
		<image style="overflow:visible;enable-background:new    ;" width="417" height="688" xlink:href="../../Web-Type/Broken Glass/F7F43A9D.png"  transform="matrix(0.2389 0 0 0.2389 -30.7406 238.2524)">
	</image>
</g>
<g>
	
		<image style="overflow:visible;enable-background:new    ;" width="679" height="429" xlink:href="../../Web-Type/Broken Glass/F7F43A9E.png"  transform="matrix(0.2533 0 0 0.2396 72.1029 316.9311)">
	</image>
</g>
<rect x="59.7" y="84.8" class="st4" width="109.3" height="12.8"/>
<rect x="77.8" y="336.4" class="st4" width="73" height="9.2"/>
</svg>
