<?xml version="1.0" encoding="utf-8"?>
<!-- Generator: Adobe Illustrator 24.0.2, SVG Export Plug-In . SVG Version: 6.00 Build 0)  -->
<svg version="1.1" id="Layer_1" xmlns="http://www.w3.org/2000/svg" xmlns:xlink="http://www.w3.org/1999/xlink" x="0px" y="0px"
	 viewBox="0 0 220 390" style="enable-background:new 0 0 220 390;" xml:space="preserve">
<style type="text/css">
	.st0{fill:none;stroke:#000000;stroke-width:11;stroke-miterlimit:10;}
	.st1{fill:none;stroke:#000000;stroke-width:6;stroke-miterlimit:10;}
	.st2{fill:#FFFFFF;stroke:#000000;stroke-width:0.5005;stroke-miterlimit:10;}
	.st3{fill:#FFFFFF;stroke:#000000;stroke-width:0.4852;stroke-miterlimit:10;}
	.st4{fill:#FFFFFF;stroke:#000000;stroke-width:0.4831;stroke-miterlimit:10;}
	.st5{fill:#C9ADC9;stroke:#000000;stroke-width:0.7459;stroke-miterlimit:10;}
	.st6{fill:none;stroke:#000000;stroke-width:0.7459;stroke-miterlimit:10;}
	.st7{fill:none;stroke:#000000;stroke-width:0.6203;stroke-miterlimit:10;}
	.st8{fill:none;stroke:#000000;stroke-width:0.6212;stroke-miterlimit:10;}
	.st9{fill:none;stroke:#000000;stroke-width:0.6982;stroke-miterlimit:10;}
	.st10{fill:none;stroke:#000000;stroke-width:0.6942;stroke-miterlimit:10;}
	.st11{fill:#EFDAEC;}
	.st12{fill:none;stroke:#000000;stroke-width:0.6075;stroke-miterlimit:10;}
	.st13{fill:none;stroke:#000000;stroke-width:0.2935;stroke-miterlimit:10;}
	.st14{fill:#B385BA;}
	.st15{fill:none;stroke:#000000;stroke-width:0.6532;stroke-miterlimit:10;}
	.st16{fill:#FFFFFF;}
	.st17{fill:none;stroke:#000000;stroke-width:0.3266;stroke-miterlimit:10;}
	.st18{fill:none;}
	.st19{font-family:'Gabriola';}
	.st20{font-size:10.8321px;}
	.st21{font-size:12px;}
</style>
<rect x="-0.5" y="-0.2" class="st0" width="220" height="390"/>
<line class="st1" x1="-3.1" y1="133.2" x2="216.9" y2="133.2"/>
<line class="st1" x1="0.4" y1="259.7" x2="220.4" y2="259.7"/>
<path class="st2" d="M4,4.7"/>
<path class="st3" d="M4,4.7"/>
<path class="st4" d="M4,4.7"/>
<g>
	
		<image style="overflow:visible;enable-background:new    ;" width="417" height="733" xlink:href="../../Web-Type/Broken Glass/7C52B579.png"  transform="matrix(0.2382 0 0 0.2382 -30.3495 -22.3378)">
	</image>
</g>
<g>
	
		<image style="overflow:visible;enable-background:new    ;" width="1158" height="408" xlink:href="../../Web-Type/Broken Glass/7C52B57B.png"  transform="matrix(0.2396 0 0 0.2396 -28.4654 68.04)">
	</image>
</g>
<g>
	
		<image style="overflow:visible;enable-background:new    ;" width="1171" height="404" xlink:href="../../Web-Type/Broken Glass/7C52B57E.png"  transform="matrix(0.2396 0 0 0.2396 -30.7132 -29.8705)">
	</image>
</g>
<g>
	
		<image style="overflow:visible;enable-background:new    ;" width="404" height="713" xlink:href="../../Web-Type/Broken Glass/7C52B57F.png"  transform="matrix(0.2387 0 0 0.2387 153.6262 -17.9592)">
	</image>
</g>
<g>
	
		<image style="overflow:visible;enable-background:new    ;" width="721" height="442" xlink:href="../../Web-Type/Broken Glass/7C52B57A.png"  transform="matrix(0.2381 0 0 0.2381 -28.957 188.2643)">
	</image>
</g>
<g>
	
		<image style="overflow:visible;enable-background:new    ;" width="696" height="442" xlink:href="../../Web-Type/Broken Glass/7C52B575.png"  transform="matrix(0.2613 0 0 0.2537 68.8807 97.6227)">
	</image>
</g>
<g>
	
		<image style="overflow:visible;enable-background:new    ;" width="371" height="596" xlink:href="../../Web-Type/Broken Glass/7C52B576.png"  transform="matrix(0.2378 0 0 0.2378 161.6785 136.0119)">
	</image>
</g>
<g>
	
		<image style="overflow:visible;enable-background:new    ;" width="429" height="688" xlink:href="../../Web-Type/Broken Glass/7C52B577.png"  transform="matrix(0.2388 0 0 0.2388 -30.3423 119.5035)">
	</image>
</g>
<g>
	
		<image style="overflow:visible;enable-background:new    ;" width="704" height="429" xlink:href="../../Web-Type/Broken Glass/7C52B589.png"  transform="matrix(0.2567 0 0 0.2386 68.8807 191.0237)">
	</image>
</g>
<g>
	
		<image style="overflow:visible;enable-background:new    ;" width="717" height="417" xlink:href="../../Web-Type/Broken Glass/F7F43A82.png"  transform="matrix(0.2389 0 0 0.2389 -25.9704 100.1199)">
	</image>
</g>
<g>
	
		<image style="overflow:visible;enable-background:new    ;" width="708" height="438" xlink:href="../../Web-Type/Broken Glass/F7F43A85.png"  transform="matrix(0.2483 0 0 0.2382 74.9149 226.8383)">
	</image>
</g>
<g>
	
		<image style="overflow:visible;enable-background:new    ;" width="688" height="413" xlink:href="../../Web-Type/Broken Glass/F7F43A86.png"  transform="matrix(0.2579 0 0 0.2386 -28.4485 321.3286)">
	</image>
</g>
<g>
	
		<image style="overflow:visible;enable-background:new    ;" width="392" height="650" xlink:href="../../Web-Type/Broken Glass/F7F43A84.png"  transform="matrix(0.2379 0 0 0.2379 156.5296 249.7299)">
	</image>
</g>
<g>
	
		<image style="overflow:visible;enable-background:new    ;" width="704" height="404" xlink:href="../../Web-Type/Broken Glass/F7F43A83.png"  transform="matrix(0.2499 0 0 0.2382 -26.985 226.2383)">
	</image>
</g>
<g>
	
		<image style="overflow:visible;enable-background:new    ;" width="417" height="688" xlink:href="../../Web-Type/Broken Glass/F7F43A9D.png"  transform="matrix(0.2389 0 0 0.2389 -30.7406 238.2524)">
	</image>
</g>
<g>
	
		<image style="overflow:visible;enable-background:new    ;" width="679" height="429" xlink:href="../../Web-Type/Broken Glass/F7F43A9E.png"  transform="matrix(0.2533 0 0 0.2396 72.1029 316.9311)">
	</image>
</g>
<circle class="st5" cx="110.4" cy="56.5" r="17.1"/>
<path class="st6" d="M95.8,47.6c0,0,16.6,2.9,29.2,0"/>
<line class="st6" x1="93.3" y1="56" x2="127.5" y2="56.5"/>
<line class="st6" x1="110.4" y1="39.4" x2="111" y2="73.6"/>
<path class="st7" d="M110.2,39.8c0,0-15.9,16.3,0.5,33.5"/>
<path class="st8" d="M111.2,73.3c0,0,15.7-16.3-0.5-33.5"/>
<path class="st6" d="M95.8,65c0,0,16.6-2.9,29.2,0"/>
<path class="st9" d="M115,73c0,0,20.1-16-0.6-33.1"/>
<path class="st10" d="M106.1,40c0,0-19.8,16.1,0.6,33.2"/>
<g>
	<path class="st11" d="M129.2,199.7c-12,1-25-3-37,0c0-8,0-15,0-23c12,0,25,0,37,0C129.2,184.7,129.2,191.7,129.2,199.7L129.2,199.7
		z"/>
	<path class="st12" d="M129.2,199.7c-12,1-25-3-37,0c0-8,0-15,0-23c12,0,25,0,37,0C129.2,184.7,129.2,191.7,129.2,199.7L129.2,199.7
		z"/>
</g>
<g>
	<path class="st11" d="M93,177.5c7,2,12,8,18,11c6-4,12-7,18-11"/>
	<path class="st13" d="M93,177.5c7,2,12,8,18,11c6-4,12-7,18-11"/>
</g>
<g>
	<path class="st14" d="M96.2,323.5c0,1,1,2,1,2c9,2,18,2,27,0c2-9,2-18,0-27c-9-2-18-2-27,0C95.2,306.5,97.2,315.5,96.2,323.5
		L96.2,323.5z"/>
	<path class="st15" d="M96.2,323.5c0,1,1,2,1,2c9,2,18,2,27,0c2-9,2-18,0-27c-9-2-18-2-27,0C95.2,306.5,97.2,315.5,96.2,323.5
		L96.2,323.5z"/>
</g>
<g>
	<path class="st16" d="M118.2,312.5c-1,3-1,6-5,7s-8-2-10-5c-2-4,2-8,5-10c3-1,6,0,8,2C118.2,307.5,119.2,309.5,118.2,312.5
		L118.2,312.5z"/>
	<path class="st17" d="M118.2,312.5c-1,3-1,6-5,7s-8-2-10-5c-2-4,2-8,5-10c3-1,6,0,8,2C118.2,307.5,119.2,309.5,118.2,312.5
		L118.2,312.5z"/>
</g>
<g>
	<path class="st16" d="M123.2,301.5c-1,1-1,2-2,2s-2-1-2-2s1-2,2-2S122.2,300.5,123.2,301.5L123.2,301.5z"/>
	<path class="st17" d="M123.2,301.5c-1,1-1,2-2,2s-2-1-2-2s1-2,2-2S122.2,300.5,123.2,301.5L123.2,301.5z"/>
</g>
<rect x="59.7" y="84.8" class="st18" width="109.3" height="12.8"/>
<text transform="matrix(1.1078 0 0 1 68.9799 91.2229)" class="st19 st20">gabbyangelina.github.io</text>
<rect x="63" y="204.2" class="st18" width="102.6" height="10.4"/>
<text transform="matrix(1 0 0 1 72.1028 217.6871)" class="st19 st21">gabbyr814@gmail.com</text>
<rect x="77.8" y="336.4" class="st18" width="73" height="9.2"/>
<text transform="matrix(1 0 0 1 81.6089 345.6227)" class="st19 st21">gabbyangeliina</text>
</svg>
